<svg width="115" height="53" viewBox="0 0 115 53" fill="none" xmlns="http://www.w3.org/2000/svg">
<path d="M23.31 39H18.41L7.315 22.235V39H2.415V14.535H7.315L18.41 31.335V14.535H23.31V39ZM43.0623 24.44V28.57H28.2223V24.44H43.0623ZM53.4576 22.41C54.0876 21.5233 54.9509 20.7883 56.0476 20.205C57.1676 19.5983 58.4392 19.295 59.8626 19.295C61.5192 19.295 63.0126 19.7033 64.3426 20.52C65.6959 21.3367 66.7576 22.5033 67.5276 24.02C68.3209 25.5133 68.7176 27.2517 68.7176 29.235C68.7176 31.2183 68.3209 32.98 67.5276 34.52C66.7576 36.0367 65.6959 37.215 64.3426 38.055C63.0126 38.895 61.5192 39.315 59.8626 39.315C58.4392 39.315 57.1792 39.0233 56.0826 38.44C55.0092 37.8567 54.1342 37.1217 53.4576 36.235V48.24H48.5576V19.61H53.4576V22.41ZM63.7126 29.235C63.7126 28.0683 63.4676 27.065 62.9776 26.225C62.5109 25.3617 61.8809 24.7083 61.0876 24.265C60.3176 23.8217 59.4776 23.6 58.5676 23.6C57.6809 23.6 56.8409 23.8333 56.0476 24.3C55.2776 24.7433 54.6476 25.3967 54.1576 26.26C53.6909 27.1233 53.4576 28.1383 53.4576 29.305C53.4576 30.4717 53.6909 31.4867 54.1576 32.35C54.6476 33.2133 55.2776 33.8783 56.0476 34.345C56.8409 34.7883 57.6809 35.01 58.5676 35.01C59.4776 35.01 60.3176 34.7767 61.0876 34.31C61.8809 33.8433 62.5109 33.1783 62.9776 32.315C63.4676 31.4517 63.7126 30.425 63.7126 29.235ZM71.0183 29.235C71.0183 27.275 71.4033 25.5367 72.1733 24.02C72.9666 22.5033 74.0283 21.3367 75.3583 20.52C76.7116 19.7033 78.2166 19.295 79.8733 19.295C81.3199 19.295 82.5799 19.5867 83.6533 20.17C84.7499 20.7533 85.6249 21.4883 86.2783 22.375V19.61H91.2133V39H86.2783V36.165C85.6483 37.075 84.7733 37.8333 83.6533 38.44C82.5566 39.0233 81.2849 39.315 79.8383 39.315C78.2049 39.315 76.7116 38.895 75.3583 38.055C74.0283 37.215 72.9666 36.0367 72.1733 34.52C71.4033 32.98 71.0183 31.2183 71.0183 29.235ZM86.2783 29.305C86.2783 28.115 86.0449 27.1 85.5783 26.26C85.1116 25.3967 84.4816 24.7433 83.6883 24.3C82.8949 23.8333 82.0433 23.6 81.1333 23.6C80.2233 23.6 79.3833 23.8217 78.6133 24.265C77.8433 24.7083 77.2133 25.3617 76.7233 26.225C76.2566 27.065 76.0233 28.0683 76.0233 29.235C76.0233 30.4017 76.2566 31.4283 76.7233 32.315C77.2133 33.1783 77.8433 33.8433 78.6133 34.31C79.4066 34.7767 80.2466 35.01 81.1333 35.01C82.0433 35.01 82.8949 34.7883 83.6883 34.345C84.4816 33.8783 85.1116 33.225 85.5783 32.385C86.0449 31.5217 86.2783 30.495 86.2783 29.305ZM114.549 19.61L102.544 48.17H97.329L101.529 38.51L93.759 19.61H99.254L104.259 33.155L109.334 19.61H114.549Z" fill="#2D2D2D"/>
</svg>
